<svg width="32" height="32" viewBox="0 0 32 32" fill="none" xmlns="http://www.w3.org/2000/svg">
<path d="M29.1089 4.99022C25.7269 2.03645 20.5731 2.38387 17.6179 5.7636L15.9827 7.60694L14.3475 5.7636C11.3923 2.38387 6.23856 2.03658 2.85659 4.99022C-0.526623 7.94497 -0.875156 13.1013 2.07954 16.4845L13.617 29.3204C14.2193 29.9906 15.0817 30.375 15.9828 30.375C16.8839 30.375 17.7463 29.9906 18.3486 29.3204L29.876 16.4958L29.886 16.4845C32.8408 13.1013 32.4922 7.94497 29.1089 4.99022Z" fill="#D1A6E5"/>
<path d="M29.1089 4.99022C25.7269 2.03645 20.5731 2.38387 17.6179 5.7636L15.9827 7.60694V30.375C16.8839 30.375 17.7462 29.9906 18.3486 29.3205L29.8759 16.4958L29.8859 16.4845C32.8408 13.1013 32.4922 7.94497 29.1089 4.99022Z" fill="#FFD6FB"/>
</svg>
