<svg width="100" height="95" viewBox="0 0 100 95" fill="none" xmlns="http://www.w3.org/2000/svg">
<path d="M99.785 39.4116L68.9372 51.7013L91.4337 75.2383L60.4837 63.1832L58.8916 94.9554L45.9695 65.6172L21.2213 87.0128L33.8968 57.5774L0.489707 56.0632L31.3375 43.7735L8.841 20.2365L39.791 32.2916L41.3831 0.51941L54.3052 29.8576L79.0534 8.46201L66.3779 37.8974L99.785 39.4116Z" fill="#B57B9E"/>
<path d="M99.785 39.4116L68.9372 51.7013L91.4337 75.2383L60.4837 63.1832L58.8916 94.9554L45.9695 65.6172L21.2213 87.0128L33.8968 57.5774L0.489707 56.0632L31.3375 43.7735L8.841 20.2365L39.791 32.2916L41.3831 0.51941L54.3052 29.8576L79.0534 8.46201L66.3779 37.8974L99.785 39.4116Z" fill="#B57B9E"/>
<path d="M99.785 39.4116L68.9372 51.7013L91.4337 75.2383L60.4837 63.1832L58.8916 94.9554L45.9695 65.6172L21.2213 87.0128L33.8968 57.5774L0.489707 56.0632L31.3375 43.7735L8.841 20.2365L39.791 32.2916L41.3831 0.51941L54.3052 29.8576L79.0534 8.46201L66.3779 37.8974L99.785 39.4116Z" fill="#B57B9E"/>
</svg>
